# xmcd
#
# Track frame offsets:
# 150
# 26832
# 51044
# 70041
# 87693
# 117849
# 135601
# 155379
# 176211
# 201269
# 225041
#
# Disc length: 3225 seconds
#
#
# Revision: 1
# Processed by: cddbd v1.5.2PL0 Copyright (c) Steve Scherf et al.
# Submitted via: FreeRIP 2.96 
#
DISCID=900c970b
DTITLE=ירמיהו - כנגן המנגן
DYEAR=1900
DGENRE=יהודי
TTITLE0=ותחזינה
TTITLE1=שיר הגאולה
TTITLE2=שירת הים
TTITLE3=כי בו ישמח לבנו
TTITLE4=התעוררי
TTITLE5=מעון
TTITLE6=מנוחה ושמחה
TTITLE7=שביעית
TTITLE8=הזורעים בדמעה
TTITLE9=ניגון המהלכים
TTITLE10=הרחמן
EXTD=
EXTT0=
EXTT1=
EXTT2=
EXTT3=
EXTT4=
EXTT5=
EXTT6=
EXTT7=
EXTT8=
EXTT9=
EXTT10=
PLAYORDER=
